<?xml version="1.0" encoding="UTF-8" standalone="no"?>
<svg
   xmlns:dc="http://purl.org/dc/elements/1.1/"
   xmlns:cc="http://creativecommons.org/ns#"
   xmlns:rdf="http://www.w3.org/1999/02/22-rdf-syntax-ns#"
   xmlns:svg="http://www.w3.org/2000/svg"
   xmlns="http://www.w3.org/2000/svg"
   xmlns:sodipodi="http://sodipodi.sourceforge.net/DTD/sodipodi-0.dtd"
   xmlns:inkscape="http://www.inkscape.org/namespaces/inkscape"
   width="1200pt"
   height="1200pt"
   version="1.1"
   viewBox="0 0 1200 1200"
   id="svg4528"
   sodipodi:docname="varena.svg"
   inkscape:version="0.92.4 (5da689c313, 2019-01-14)"
   inkscape:export-filename="C:\code\Varena\img\varena.png"
   inkscape:export-xdpi="16.389999"
   inkscape:export-ydpi="16.389999">
  <metadata
     id="metadata4534">
    <rdf:RDF>
      <cc:Work
         rdf:about="">
        <dc:format>image/svg+xml</dc:format>
        <dc:type
           rdf:resource="http://purl.org/dc/dcmitype/StillImage" />
      </cc:Work>
    </rdf:RDF>
  </metadata>
  <defs
     id="defs4532" />
  <sodipodi:namedview
     pagecolor="#ffffff"
     bordercolor="#666666"
     borderopacity="1"
     objecttolerance="10"
     gridtolerance="10"
     guidetolerance="10"
     inkscape:pageopacity="0"
     inkscape:pageshadow="2"
     inkscape:window-width="3007"
     inkscape:window-height="1937"
     id="namedview4530"
     showgrid="false"
     inkscape:zoom="0.80919532"
     inkscape:cx="612.1105"
     inkscape:cy="748.98685"
     inkscape:window-x="369"
     inkscape:window-y="121"
     inkscape:window-maximized="0"
     inkscape:current-layer="svg4528" />
  <path
     style="fill:#ff6600"
     inkscape:connector-curvature="0"
     id="path4518"
     d="m 344.36,754.27 101.36,101.4 0.0352,0.0352 101.32,-101.44 -101.36,-101.36 z" />
  <path
     style="fill:#ff6600"
     inkscape:connector-curvature="0"
     id="path4520"
     d="m 653.14,445.49 101.4,-101.4 101.4,101.4 -101.4,101.4 z" />
  <path
     style="fill:#12b0fb"
     inkscape:connector-curvature="0"
     id="path4522"
     d="M 1140.5,366.71 833.26,59.44 c -29.211,-29.176 -76.836,-29.211 -106.05,0 L 59.67,726.98 c -14.176,14.137 -21.977,33 -21.977,53.062 0,20.023 7.8008,38.852 21.977,53.023 l 307.24,307.24 c 14.625,14.625 33.824,21.938 53.023,21.938 19.199,0 38.398,-7.3125 53.023,-21.938 l 667.54,-667.54 c 29.25,-29.211 29.25,-76.801 0,-106.05 z M 600.09,807.33 498.73,908.69 c -14.625,14.625 -33.824,21.938 -53.023,21.938 -19.199,0 -38.398,-7.3125 -53.023,-21.938 l -101.36,-101.4 c -14.176,-14.137 -21.977,-32.961 -21.977,-53.023 0,-20.023 7.8008,-38.852 21.977,-53.023 l 101.36,-101.36 c 29.211,-29.25 76.836,-29.25 106.05,0 l 101.36,101.36 c 14.176,14.176 21.977,33 21.977,53.023 -0.008,20.059 -7.8047,38.887 -21.98,53.059 z M 908.9,498.48 807.54,599.84 c -14.625,14.625 -33.824,21.938 -53.062,21.938 -19.199,0 -38.398,-7.3125 -53.023,-21.938 L 600.095,498.48 c -29.25,-29.25 -29.25,-76.801 0,-106.05 l 101.36,-101.4 c 29.176,-29.211 76.762,-29.25 106.09,0 l 101.36,101.4 c 29.285,29.25 29.285,76.836 0,106.05 z" />
  <path
     style="fill:#c83737"
     inkscape:connector-curvature="0"
     id="path4524"
     d="m 627.71,1091.7 c 13.727,12.227 31.051,19.164 49.613,19.164 h 0.0742 c 20.023,0 38.852,-7.8008 52.949,-21.977 l 358.73,-358.73 c 28.199,-28.164 28.949,-73.199 2.8125,-102.64 z" />
</svg>
